<mxfile host="app.diagrams.net" modified="2021-01-20T09:33:30.886Z" agent="5.0 (X11; Linux x86_64) AppleWebKit/537.36 (KHTML, like Gecko) Chrome/88.0.4324.96 Safari/537.36" etag="89dG5GOSDTqOGxTU0qQF" version="14.2.4" type="github">
  <diagram id="2qn5X2Ru-cSCUIcrenQX" name="Page-1">
    <mxGraphModel dx="3626" dy="2145" grid="1" gridSize="10" guides="1" tooltips="1" connect="1" arrows="1" fold="1" page="1" pageScale="1" pageWidth="850" pageHeight="1100" math="0" shadow="0">
      <root>
        <mxCell id="0" />
        <mxCell id="1" parent="0" />
        <mxCell id="3ymaL1mxYPUGHXvWcZjj-62" value="" style="rounded=0;whiteSpace=wrap;html=1;shadow=1;fillColor=#FFFFFF;" vertex="1" parent="1">
          <mxGeometry x="-830" y="10" width="300" height="190" as="geometry" />
        </mxCell>
        <mxCell id="3ymaL1mxYPUGHXvWcZjj-2" value="External&lt;br&gt;Entity" style="html=1;dashed=0;whitespace=wrap;shadow=1;fillColor=#FF5E5E;" vertex="1" parent="1">
          <mxGeometry x="-790" y="40" width="100" height="70" as="geometry" />
        </mxCell>
        <mxCell id="3ymaL1mxYPUGHXvWcZjj-3" value="Process" style="shape=ellipse;html=1;dashed=0;whitespace=wrap;perimeter=ellipsePerimeter;fillColor=#99E0FF;shadow=1;" vertex="1" parent="1">
          <mxGeometry x="-780" y="130" width="50" height="50" as="geometry" />
        </mxCell>
        <mxCell id="3ymaL1mxYPUGHXvWcZjj-4" value="Data Store" style="shape=partialRectangle;whiteSpace=wrap;html=1;left=0;right=0;fillColor=#CBA8FF;shadow=1;" vertex="1" parent="1">
          <mxGeometry x="-660" y="55" width="90" height="40" as="geometry" />
        </mxCell>
        <mxCell id="3ymaL1mxYPUGHXvWcZjj-9" value="Users table" style="shape=partialRectangle;whiteSpace=wrap;html=1;left=0;right=0;fillColor=#CBA8FF;shadow=1;" vertex="1" parent="1">
          <mxGeometry x="-990" y="325" width="115" height="50" as="geometry" />
        </mxCell>
        <mxCell id="3ymaL1mxYPUGHXvWcZjj-17" value="User&lt;br&gt;Auhentication&lt;br&gt;Process" style="shape=ellipse;html=1;dashed=0;whitespace=wrap;perimeter=ellipsePerimeter;fillColor=#99E0FF;shadow=1;" vertex="1" parent="1">
          <mxGeometry x="-535" y="310" width="80" height="80" as="geometry" />
        </mxCell>
        <mxCell id="3ymaL1mxYPUGHXvWcZjj-19" value="" style="endArrow=classic;startArrow=classic;html=1;entryX=0;entryY=0.5;entryDx=0;entryDy=0;exitX=1;exitY=0.5;exitDx=0;exitDy=0;" edge="1" parent="1" source="3ymaL1mxYPUGHXvWcZjj-30" target="3ymaL1mxYPUGHXvWcZjj-17">
          <mxGeometry width="50" height="50" relative="1" as="geometry">
            <mxPoint x="-581.9897342543973" y="312.8150752683273" as="sourcePoint" />
            <mxPoint x="-515.0000000000002" y="349.9999999999998" as="targetPoint" />
          </mxGeometry>
        </mxCell>
        <mxCell id="3ymaL1mxYPUGHXvWcZjj-24" value="" style="endArrow=classic;startArrow=classic;html=1;exitX=1;exitY=0.5;exitDx=0;exitDy=0;entryX=0;entryY=0.5;entryDx=0;entryDy=0;" edge="1" parent="1" source="3ymaL1mxYPUGHXvWcZjj-9" target="3ymaL1mxYPUGHXvWcZjj-30">
          <mxGeometry width="50" height="50" relative="1" as="geometry">
            <mxPoint x="-690" y="420" as="sourcePoint" />
            <mxPoint x="-660" y="340" as="targetPoint" />
          </mxGeometry>
        </mxCell>
        <mxCell id="3ymaL1mxYPUGHXvWcZjj-29" value="user_id&lt;br&gt;email&lt;br&gt;password&lt;br&gt;share_preferences" style="edgeLabel;html=1;align=center;verticalAlign=middle;resizable=0;points=[];" vertex="1" connectable="0" parent="3ymaL1mxYPUGHXvWcZjj-24">
          <mxGeometry x="0.4286" relative="1" as="geometry">
            <mxPoint x="-28.6" as="offset" />
          </mxGeometry>
        </mxCell>
        <mxCell id="3ymaL1mxYPUGHXvWcZjj-31" value="" style="edgeStyle=orthogonalEdgeStyle;rounded=0;orthogonalLoop=1;jettySize=auto;html=1;" edge="1" parent="1" source="3ymaL1mxYPUGHXvWcZjj-30" target="3ymaL1mxYPUGHXvWcZjj-9">
          <mxGeometry relative="1" as="geometry" />
        </mxCell>
        <mxCell id="3ymaL1mxYPUGHXvWcZjj-30" value="Auth0 &lt;br&gt;authentication" style="html=1;dashed=0;whitespace=wrap;shadow=1;fillColor=#FF5E5E;" vertex="1" parent="1">
          <mxGeometry x="-730" y="325" width="100" height="50" as="geometry" />
        </mxCell>
        <mxCell id="3ymaL1mxYPUGHXvWcZjj-32" value="Expense&lt;br&gt;Process" style="shape=ellipse;html=1;dashed=0;whitespace=wrap;perimeter=ellipsePerimeter;fillColor=#99E0FF;shadow=1;" vertex="1" parent="1">
          <mxGeometry x="-190" y="200" width="80" height="80" as="geometry" />
        </mxCell>
        <mxCell id="3ymaL1mxYPUGHXvWcZjj-36" value="Income&lt;br&gt;Process" style="shape=ellipse;html=1;dashed=0;whitespace=wrap;perimeter=ellipsePerimeter;fillColor=#99E0FF;shadow=1;" vertex="1" parent="1">
          <mxGeometry x="-210" y="565" width="80" height="80" as="geometry" />
        </mxCell>
        <mxCell id="3ymaL1mxYPUGHXvWcZjj-44" value="User" style="html=1;dashed=0;whitespace=wrap;shadow=1;fillColor=#FF5E5E;" vertex="1" parent="1">
          <mxGeometry x="-390" y="230" width="100" height="50" as="geometry" />
        </mxCell>
        <mxCell id="3ymaL1mxYPUGHXvWcZjj-45" value="Budget&lt;br&gt;Tracker&lt;br&gt;App" style="shape=ellipse;html=1;dashed=0;whitespace=wrap;perimeter=ellipsePerimeter;fillColor=#99E0FF;shadow=1;" vertex="1" parent="1">
          <mxGeometry x="-380" y="370" width="80" height="80" as="geometry" />
        </mxCell>
        <mxCell id="3ymaL1mxYPUGHXvWcZjj-46" value="" style="endArrow=classic;startArrow=classic;html=1;entryX=0.5;entryY=1;entryDx=0;entryDy=0;exitX=0.5;exitY=0;exitDx=0;exitDy=0;" edge="1" parent="1" source="3ymaL1mxYPUGHXvWcZjj-45" target="3ymaL1mxYPUGHXvWcZjj-44">
          <mxGeometry width="50" height="50" relative="1" as="geometry">
            <mxPoint x="-360" y="360" as="sourcePoint" />
            <mxPoint x="-310" y="310" as="targetPoint" />
          </mxGeometry>
        </mxCell>
        <mxCell id="3ymaL1mxYPUGHXvWcZjj-48" value="" style="endArrow=classic;startArrow=classic;html=1;exitX=0.992;exitY=0.585;exitDx=0;exitDy=0;exitPerimeter=0;" edge="1" parent="1" source="3ymaL1mxYPUGHXvWcZjj-17" target="3ymaL1mxYPUGHXvWcZjj-45">
          <mxGeometry width="50" height="50" relative="1" as="geometry">
            <mxPoint x="-425" y="410" as="sourcePoint" />
            <mxPoint x="-390" y="360" as="targetPoint" />
          </mxGeometry>
        </mxCell>
        <mxCell id="3ymaL1mxYPUGHXvWcZjj-50" value="" style="endArrow=classic;html=1;exitX=1.002;exitY=0.315;exitDx=0;exitDy=0;exitPerimeter=0;entryX=0.054;entryY=0.752;entryDx=0;entryDy=0;entryPerimeter=0;" edge="1" parent="1" source="3ymaL1mxYPUGHXvWcZjj-45" target="3ymaL1mxYPUGHXvWcZjj-32">
          <mxGeometry width="50" height="50" relative="1" as="geometry">
            <mxPoint x="-280" y="410" as="sourcePoint" />
            <mxPoint x="-230" y="360" as="targetPoint" />
          </mxGeometry>
        </mxCell>
        <mxCell id="3ymaL1mxYPUGHXvWcZjj-75" value="user_id" style="edgeLabel;html=1;align=center;verticalAlign=middle;resizable=0;points=[];" vertex="1" connectable="0" parent="3ymaL1mxYPUGHXvWcZjj-50">
          <mxGeometry x="-0.2005" y="3" relative="1" as="geometry">
            <mxPoint as="offset" />
          </mxGeometry>
        </mxCell>
        <mxCell id="3ymaL1mxYPUGHXvWcZjj-51" value="" style="endArrow=classic;html=1;entryX=0.044;entryY=0.346;entryDx=0;entryDy=0;entryPerimeter=0;exitX=0.971;exitY=0.742;exitDx=0;exitDy=0;exitPerimeter=0;" edge="1" parent="1" source="3ymaL1mxYPUGHXvWcZjj-45" target="3ymaL1mxYPUGHXvWcZjj-36">
          <mxGeometry width="50" height="50" relative="1" as="geometry">
            <mxPoint x="-270" y="480" as="sourcePoint" />
            <mxPoint x="-220" y="430" as="targetPoint" />
          </mxGeometry>
        </mxCell>
        <mxCell id="3ymaL1mxYPUGHXvWcZjj-125" value="user_id" style="edgeLabel;html=1;align=center;verticalAlign=middle;resizable=0;points=[];" vertex="1" connectable="0" parent="3ymaL1mxYPUGHXvWcZjj-51">
          <mxGeometry x="0.1505" relative="1" as="geometry">
            <mxPoint x="-12.79" y="-23.27" as="offset" />
          </mxGeometry>
        </mxCell>
        <mxCell id="3ymaL1mxYPUGHXvWcZjj-59" value="" style="endArrow=classic;startArrow=classic;html=1;" edge="1" parent="1">
          <mxGeometry width="50" height="50" relative="1" as="geometry">
            <mxPoint x="-660" y="160" as="sourcePoint" />
            <mxPoint x="-570" y="160" as="targetPoint" />
          </mxGeometry>
        </mxCell>
        <mxCell id="3ymaL1mxYPUGHXvWcZjj-60" value="Data Flow" style="edgeLabel;html=1;align=center;verticalAlign=middle;resizable=0;points=[];" vertex="1" connectable="0" parent="3ymaL1mxYPUGHXvWcZjj-59">
          <mxGeometry x="-0.2185" relative="1" as="geometry">
            <mxPoint x="10" as="offset" />
          </mxGeometry>
        </mxCell>
        <mxCell id="3ymaL1mxYPUGHXvWcZjj-61" value="&lt;b&gt;KEY:&lt;/b&gt;" style="text;html=1;strokeColor=none;fillColor=none;align=center;verticalAlign=middle;whiteSpace=wrap;rounded=0;shadow=1;" vertex="1" parent="1">
          <mxGeometry x="-700" y="10" width="40" height="20" as="geometry" />
        </mxCell>
        <mxCell id="3ymaL1mxYPUGHXvWcZjj-65" value="TradingView&lt;br&gt;API" style="html=1;dashed=0;whitespace=wrap;shadow=1;fillColor=#FF5E5E;" vertex="1" parent="1">
          <mxGeometry x="-540" y="580" width="100" height="50" as="geometry" />
        </mxCell>
        <mxCell id="3ymaL1mxYPUGHXvWcZjj-66" value="Users table" style="shape=partialRectangle;whiteSpace=wrap;html=1;left=0;right=0;fillColor=#CBA8FF;shadow=1;" vertex="1" parent="1">
          <mxGeometry x="-535" y="700" width="90" height="40" as="geometry" />
        </mxCell>
        <mxCell id="3ymaL1mxYPUGHXvWcZjj-67" value="Shares&lt;br&gt;Process" style="shape=ellipse;html=1;dashed=0;whitespace=wrap;perimeter=ellipsePerimeter;fillColor=#99E0FF;shadow=1;" vertex="1" parent="1">
          <mxGeometry x="-530" y="450" width="80" height="80" as="geometry" />
        </mxCell>
        <mxCell id="3ymaL1mxYPUGHXvWcZjj-69" value="" style="endArrow=classic;html=1;entryX=0.95;entryY=0.242;entryDx=0;entryDy=0;entryPerimeter=0;" edge="1" parent="1" source="3ymaL1mxYPUGHXvWcZjj-45" target="3ymaL1mxYPUGHXvWcZjj-67">
          <mxGeometry width="50" height="50" relative="1" as="geometry">
            <mxPoint x="-400" y="510" as="sourcePoint" />
            <mxPoint x="-350" y="460" as="targetPoint" />
          </mxGeometry>
        </mxCell>
        <mxCell id="3ymaL1mxYPUGHXvWcZjj-78" value="" style="endArrow=classic;startArrow=classic;html=1;entryX=0.5;entryY=1;entryDx=0;entryDy=0;exitX=0.5;exitY=0;exitDx=0;exitDy=0;" edge="1" parent="1" source="3ymaL1mxYPUGHXvWcZjj-65" target="3ymaL1mxYPUGHXvWcZjj-67">
          <mxGeometry width="50" height="50" relative="1" as="geometry">
            <mxPoint x="-500" y="580" as="sourcePoint" />
            <mxPoint x="-450" y="530" as="targetPoint" />
          </mxGeometry>
        </mxCell>
        <mxCell id="3ymaL1mxYPUGHXvWcZjj-79" value="" style="endArrow=classic;startArrow=classic;html=1;entryX=0.5;entryY=1;entryDx=0;entryDy=0;" edge="1" parent="1" source="3ymaL1mxYPUGHXvWcZjj-66" target="3ymaL1mxYPUGHXvWcZjj-65">
          <mxGeometry width="50" height="50" relative="1" as="geometry">
            <mxPoint x="-600" y="710" as="sourcePoint" />
            <mxPoint x="-550" y="660" as="targetPoint" />
          </mxGeometry>
        </mxCell>
        <mxCell id="3ymaL1mxYPUGHXvWcZjj-80" value="user_id&lt;br&gt;share_preferences" style="edgeLabel;html=1;align=center;verticalAlign=middle;resizable=0;points=[];" vertex="1" connectable="0" parent="3ymaL1mxYPUGHXvWcZjj-79">
          <mxGeometry x="0.24" relative="1" as="geometry">
            <mxPoint y="3.5999999999999996" as="offset" />
          </mxGeometry>
        </mxCell>
        <mxCell id="3ymaL1mxYPUGHXvWcZjj-83" value="Expenses table" style="shape=partialRectangle;whiteSpace=wrap;html=1;left=0;right=0;fillColor=#CBA8FF;shadow=1;" vertex="1" parent="1">
          <mxGeometry x="170" y="215" width="90" height="40" as="geometry" />
        </mxCell>
        <mxCell id="3ymaL1mxYPUGHXvWcZjj-85" value="Create/Update&lt;br&gt;Expense" style="shape=ellipse;html=1;dashed=0;whitespace=wrap;perimeter=ellipsePerimeter;fillColor=#99E0FF;shadow=1;" vertex="1" parent="1">
          <mxGeometry x="-30" y="80" width="80" height="80" as="geometry" />
        </mxCell>
        <mxCell id="3ymaL1mxYPUGHXvWcZjj-87" value="View&lt;br&gt;Expense" style="shape=ellipse;html=1;dashed=0;whitespace=wrap;perimeter=ellipsePerimeter;fillColor=#99E0FF;shadow=1;" vertex="1" parent="1">
          <mxGeometry x="-30" y="200" width="80" height="80" as="geometry" />
        </mxCell>
        <mxCell id="3ymaL1mxYPUGHXvWcZjj-88" value="Delete&lt;br&gt;Expense" style="shape=ellipse;html=1;dashed=0;whitespace=wrap;perimeter=ellipsePerimeter;fillColor=#99E0FF;shadow=1;" vertex="1" parent="1">
          <mxGeometry x="-30" y="325" width="80" height="80" as="geometry" />
        </mxCell>
        <mxCell id="3ymaL1mxYPUGHXvWcZjj-89" value="" style="endArrow=classic;html=1;exitX=1;exitY=0;exitDx=0;exitDy=0;entryX=0;entryY=1;entryDx=0;entryDy=0;" edge="1" parent="1" source="3ymaL1mxYPUGHXvWcZjj-32" target="3ymaL1mxYPUGHXvWcZjj-85">
          <mxGeometry width="50" height="50" relative="1" as="geometry">
            <mxPoint x="-115" y="210" as="sourcePoint" />
            <mxPoint x="-65" y="160" as="targetPoint" />
          </mxGeometry>
        </mxCell>
        <mxCell id="3ymaL1mxYPUGHXvWcZjj-92" value="user_id" style="edgeLabel;html=1;align=center;verticalAlign=middle;resizable=0;points=[];" vertex="1" connectable="0" parent="3ymaL1mxYPUGHXvWcZjj-89">
          <mxGeometry x="0.396" y="1" relative="1" as="geometry">
            <mxPoint x="-19.86" y="8.35" as="offset" />
          </mxGeometry>
        </mxCell>
        <mxCell id="3ymaL1mxYPUGHXvWcZjj-90" value="" style="endArrow=classic;html=1;exitX=1;exitY=0.5;exitDx=0;exitDy=0;entryX=0;entryY=0.5;entryDx=0;entryDy=0;" edge="1" parent="1" source="3ymaL1mxYPUGHXvWcZjj-32" target="3ymaL1mxYPUGHXvWcZjj-87">
          <mxGeometry width="50" height="50" relative="1" as="geometry">
            <mxPoint x="-100" y="285" as="sourcePoint" />
            <mxPoint x="-50" y="235" as="targetPoint" />
          </mxGeometry>
        </mxCell>
        <mxCell id="3ymaL1mxYPUGHXvWcZjj-93" value="user_id" style="edgeLabel;html=1;align=center;verticalAlign=middle;resizable=0;points=[];" vertex="1" connectable="0" parent="3ymaL1mxYPUGHXvWcZjj-90">
          <mxGeometry x="-0.1607" y="-2" relative="1" as="geometry">
            <mxPoint x="6.29" y="-2" as="offset" />
          </mxGeometry>
        </mxCell>
        <mxCell id="3ymaL1mxYPUGHXvWcZjj-91" value="" style="endArrow=classic;html=1;exitX=0.92;exitY=0.809;exitDx=0;exitDy=0;exitPerimeter=0;entryX=0.098;entryY=0.168;entryDx=0;entryDy=0;entryPerimeter=0;" edge="1" parent="1" source="3ymaL1mxYPUGHXvWcZjj-32" target="3ymaL1mxYPUGHXvWcZjj-88">
          <mxGeometry width="50" height="50" relative="1" as="geometry">
            <mxPoint x="-100" y="345" as="sourcePoint" />
            <mxPoint x="-50" y="295" as="targetPoint" />
          </mxGeometry>
        </mxCell>
        <mxCell id="3ymaL1mxYPUGHXvWcZjj-94" value="user_id" style="edgeLabel;html=1;align=center;verticalAlign=middle;resizable=0;points=[];" vertex="1" connectable="0" parent="3ymaL1mxYPUGHXvWcZjj-91">
          <mxGeometry x="-0.1812" y="1" relative="1" as="geometry">
            <mxPoint as="offset" />
          </mxGeometry>
        </mxCell>
        <mxCell id="3ymaL1mxYPUGHXvWcZjj-95" value="" style="endArrow=classic;startArrow=classic;html=1;exitX=0.955;exitY=0.759;exitDx=0;exitDy=0;exitPerimeter=0;entryX=0;entryY=0;entryDx=0;entryDy=0;" edge="1" parent="1" source="3ymaL1mxYPUGHXvWcZjj-85" target="3ymaL1mxYPUGHXvWcZjj-83">
          <mxGeometry width="50" height="50" relative="1" as="geometry">
            <mxPoint x="80" y="205" as="sourcePoint" />
            <mxPoint x="130" y="155" as="targetPoint" />
          </mxGeometry>
        </mxCell>
        <mxCell id="3ymaL1mxYPUGHXvWcZjj-98" value="user_id&lt;br&gt;description&lt;br&gt;amount&lt;br&gt;category_id" style="edgeLabel;html=1;align=center;verticalAlign=middle;resizable=0;points=[];" vertex="1" connectable="0" parent="3ymaL1mxYPUGHXvWcZjj-95">
          <mxGeometry x="-0.4438" y="2" relative="1" as="geometry">
            <mxPoint x="28.28" y="5.39" as="offset" />
          </mxGeometry>
        </mxCell>
        <mxCell id="3ymaL1mxYPUGHXvWcZjj-96" value="" style="endArrow=classic;startArrow=classic;html=1;exitX=1;exitY=0.5;exitDx=0;exitDy=0;entryX=-0.014;entryY=0.6;entryDx=0;entryDy=0;entryPerimeter=0;" edge="1" parent="1" source="3ymaL1mxYPUGHXvWcZjj-87" target="3ymaL1mxYPUGHXvWcZjj-83">
          <mxGeometry width="50" height="50" relative="1" as="geometry">
            <mxPoint x="100" y="275" as="sourcePoint" />
            <mxPoint x="150" y="225" as="targetPoint" />
          </mxGeometry>
        </mxCell>
        <mxCell id="3ymaL1mxYPUGHXvWcZjj-99" value="user_id&lt;br&gt;description&lt;br&gt;amount&lt;br&gt;category_id" style="edgeLabel;html=1;align=center;verticalAlign=middle;resizable=0;points=[];" vertex="1" connectable="0" parent="3ymaL1mxYPUGHXvWcZjj-96">
          <mxGeometry x="-0.1168" y="1" relative="1" as="geometry">
            <mxPoint as="offset" />
          </mxGeometry>
        </mxCell>
        <mxCell id="3ymaL1mxYPUGHXvWcZjj-101" value="" style="endArrow=classic;startArrow=classic;html=1;exitX=1.027;exitY=0.354;exitDx=0;exitDy=0;exitPerimeter=0;entryX=0;entryY=1;entryDx=0;entryDy=0;" edge="1" parent="1" source="3ymaL1mxYPUGHXvWcZjj-88" target="3ymaL1mxYPUGHXvWcZjj-83">
          <mxGeometry width="50" height="50" relative="1" as="geometry">
            <mxPoint x="100" y="395" as="sourcePoint" />
            <mxPoint x="150" y="345" as="targetPoint" />
          </mxGeometry>
        </mxCell>
        <mxCell id="3ymaL1mxYPUGHXvWcZjj-103" value="user_id&lt;br&gt;description&lt;br&gt;amount&lt;br&gt;category_id" style="edgeLabel;html=1;align=center;verticalAlign=middle;resizable=0;points=[];" vertex="1" connectable="0" parent="3ymaL1mxYPUGHXvWcZjj-101">
          <mxGeometry x="-0.3592" y="-1" relative="1" as="geometry">
            <mxPoint x="19.47" y="-12.6" as="offset" />
          </mxGeometry>
        </mxCell>
        <mxCell id="3ymaL1mxYPUGHXvWcZjj-104" value="Expenses table" style="shape=partialRectangle;whiteSpace=wrap;html=1;left=0;right=0;fillColor=#CBA8FF;shadow=1;" vertex="1" parent="1">
          <mxGeometry x="169.99955100911762" y="585" width="90" height="40" as="geometry" />
        </mxCell>
        <mxCell id="3ymaL1mxYPUGHXvWcZjj-105" value="Create/Update&lt;br&gt;Expense" style="shape=ellipse;html=1;dashed=0;whitespace=wrap;perimeter=ellipsePerimeter;fillColor=#99E0FF;shadow=1;" vertex="1" parent="1">
          <mxGeometry x="-30.000448990882376" y="450" width="80" height="80" as="geometry" />
        </mxCell>
        <mxCell id="3ymaL1mxYPUGHXvWcZjj-106" value="View&lt;br&gt;Expense" style="shape=ellipse;html=1;dashed=0;whitespace=wrap;perimeter=ellipsePerimeter;fillColor=#99E0FF;shadow=1;" vertex="1" parent="1">
          <mxGeometry x="-30.000448990882376" y="570" width="80" height="80" as="geometry" />
        </mxCell>
        <mxCell id="3ymaL1mxYPUGHXvWcZjj-107" value="Delete&lt;br&gt;Expense" style="shape=ellipse;html=1;dashed=0;whitespace=wrap;perimeter=ellipsePerimeter;fillColor=#99E0FF;shadow=1;" vertex="1" parent="1">
          <mxGeometry x="-30.000448990882376" y="695" width="80" height="80" as="geometry" />
        </mxCell>
        <mxCell id="3ymaL1mxYPUGHXvWcZjj-111" value="" style="endArrow=classic;startArrow=classic;html=1;exitX=0.955;exitY=0.759;exitDx=0;exitDy=0;exitPerimeter=0;entryX=0;entryY=0;entryDx=0;entryDy=0;" edge="1" source="3ymaL1mxYPUGHXvWcZjj-105" target="3ymaL1mxYPUGHXvWcZjj-104" parent="1">
          <mxGeometry width="50" height="50" relative="1" as="geometry">
            <mxPoint x="79.99955100911762" y="575" as="sourcePoint" />
            <mxPoint x="129.99955100911762" y="525" as="targetPoint" />
          </mxGeometry>
        </mxCell>
        <mxCell id="3ymaL1mxYPUGHXvWcZjj-112" value="user_id&lt;br&gt;description&lt;br&gt;amount&lt;br&gt;category_id" style="edgeLabel;html=1;align=center;verticalAlign=middle;resizable=0;points=[];" vertex="1" connectable="0" parent="3ymaL1mxYPUGHXvWcZjj-111">
          <mxGeometry x="-0.4438" y="2" relative="1" as="geometry">
            <mxPoint x="28.28" y="5.39" as="offset" />
          </mxGeometry>
        </mxCell>
        <mxCell id="3ymaL1mxYPUGHXvWcZjj-113" value="" style="endArrow=classic;startArrow=classic;html=1;exitX=1;exitY=0.5;exitDx=0;exitDy=0;entryX=-0.014;entryY=0.6;entryDx=0;entryDy=0;entryPerimeter=0;" edge="1" source="3ymaL1mxYPUGHXvWcZjj-106" target="3ymaL1mxYPUGHXvWcZjj-104" parent="1">
          <mxGeometry width="50" height="50" relative="1" as="geometry">
            <mxPoint x="99.99955100911762" y="645" as="sourcePoint" />
            <mxPoint x="149.99955100911762" y="595" as="targetPoint" />
          </mxGeometry>
        </mxCell>
        <mxCell id="3ymaL1mxYPUGHXvWcZjj-114" value="user_id&lt;br&gt;description&lt;br&gt;amount&lt;br&gt;category_id" style="edgeLabel;html=1;align=center;verticalAlign=middle;resizable=0;points=[];" vertex="1" connectable="0" parent="3ymaL1mxYPUGHXvWcZjj-113">
          <mxGeometry x="-0.1168" y="1" relative="1" as="geometry">
            <mxPoint as="offset" />
          </mxGeometry>
        </mxCell>
        <mxCell id="3ymaL1mxYPUGHXvWcZjj-115" value="" style="endArrow=classic;startArrow=classic;html=1;exitX=1.027;exitY=0.354;exitDx=0;exitDy=0;exitPerimeter=0;entryX=0;entryY=1;entryDx=0;entryDy=0;" edge="1" source="3ymaL1mxYPUGHXvWcZjj-107" target="3ymaL1mxYPUGHXvWcZjj-104" parent="1">
          <mxGeometry width="50" height="50" relative="1" as="geometry">
            <mxPoint x="99.99955100911762" y="765" as="sourcePoint" />
            <mxPoint x="149.99955100911762" y="715" as="targetPoint" />
          </mxGeometry>
        </mxCell>
        <mxCell id="3ymaL1mxYPUGHXvWcZjj-116" value="user_id&lt;br&gt;description&lt;br&gt;amount&lt;br&gt;category_id" style="edgeLabel;html=1;align=center;verticalAlign=middle;resizable=0;points=[];" vertex="1" connectable="0" parent="3ymaL1mxYPUGHXvWcZjj-115">
          <mxGeometry x="-0.3592" y="-1" relative="1" as="geometry">
            <mxPoint x="19.47" y="-12.6" as="offset" />
          </mxGeometry>
        </mxCell>
        <mxCell id="3ymaL1mxYPUGHXvWcZjj-119" value="" style="endArrow=classic;html=1;entryX=0.075;entryY=0.775;entryDx=0;entryDy=0;entryPerimeter=0;exitX=0.975;exitY=0.288;exitDx=0;exitDy=0;exitPerimeter=0;" edge="1" parent="1" source="3ymaL1mxYPUGHXvWcZjj-36" target="3ymaL1mxYPUGHXvWcZjj-105">
          <mxGeometry width="50" height="50" relative="1" as="geometry">
            <mxPoint x="-120" y="570" as="sourcePoint" />
            <mxPoint x="-70" y="520" as="targetPoint" />
          </mxGeometry>
        </mxCell>
        <mxCell id="3ymaL1mxYPUGHXvWcZjj-120" value="user_id" style="edgeLabel;html=1;align=center;verticalAlign=middle;resizable=0;points=[];" vertex="1" connectable="0" parent="3ymaL1mxYPUGHXvWcZjj-119">
          <mxGeometry x="0.2309" y="-1" relative="1" as="geometry">
            <mxPoint x="-12" y="7.77" as="offset" />
          </mxGeometry>
        </mxCell>
        <mxCell id="3ymaL1mxYPUGHXvWcZjj-121" value="" style="endArrow=classic;html=1;entryX=0;entryY=0.5;entryDx=0;entryDy=0;" edge="1" parent="1" target="3ymaL1mxYPUGHXvWcZjj-106">
          <mxGeometry width="50" height="50" relative="1" as="geometry">
            <mxPoint x="-128" y="610" as="sourcePoint" />
            <mxPoint x="-60" y="620" as="targetPoint" />
          </mxGeometry>
        </mxCell>
        <mxCell id="3ymaL1mxYPUGHXvWcZjj-122" value="user_id" style="edgeLabel;html=1;align=center;verticalAlign=middle;resizable=0;points=[];" vertex="1" connectable="0" parent="3ymaL1mxYPUGHXvWcZjj-121">
          <mxGeometry x="-0.3094" relative="1" as="geometry">
            <mxPoint x="14.13" as="offset" />
          </mxGeometry>
        </mxCell>
        <mxCell id="3ymaL1mxYPUGHXvWcZjj-123" value="" style="endArrow=classic;html=1;entryX=0.027;entryY=0.291;entryDx=0;entryDy=0;entryPerimeter=0;" edge="1" parent="1" source="3ymaL1mxYPUGHXvWcZjj-36" target="3ymaL1mxYPUGHXvWcZjj-107">
          <mxGeometry width="50" height="50" relative="1" as="geometry">
            <mxPoint x="-110" y="760" as="sourcePoint" />
            <mxPoint x="-60" y="710" as="targetPoint" />
          </mxGeometry>
        </mxCell>
        <mxCell id="3ymaL1mxYPUGHXvWcZjj-124" value="user_id" style="edgeLabel;html=1;align=center;verticalAlign=middle;resizable=0;points=[];" vertex="1" connectable="0" parent="3ymaL1mxYPUGHXvWcZjj-123">
          <mxGeometry x="0.1086" relative="1" as="geometry">
            <mxPoint x="-2.71" y="-8.88" as="offset" />
          </mxGeometry>
        </mxCell>
      </root>
    </mxGraphModel>
  </diagram>
</mxfile>
